<svg width="107" height="54" viewBox="0 0 107 54" fill="none" xmlns="http://www.w3.org/2000/svg">
<path d="M54.5781 22V6H57.4766V19.5703H64.5234V22H54.5781ZM66.9141 22V10H69.7422V22H66.9141ZM68.3359 8.29688C67.888 8.29688 67.5026 8.14844 67.1797 7.85156C66.8568 7.54948 66.6953 7.1875 66.6953 6.76562C66.6953 6.33854 66.8568 5.97656 67.1797 5.67969C67.5026 5.3776 67.888 5.22656 68.3359 5.22656C68.7891 5.22656 69.1745 5.3776 69.4922 5.67969C69.8151 5.97656 69.9766 6.33854 69.9766 6.76562C69.9766 7.1875 69.8151 7.54948 69.4922 7.85156C69.1745 8.14844 68.7891 8.29688 68.3359 8.29688ZM75.4785 14.9687V22H72.6504V10H75.3535V12.0391H75.4941C75.7702 11.3672 76.2103 10.8333 76.8145 10.4375C77.4238 10.0417 78.1764 9.84375 79.0723 9.84375C79.9004 9.84375 80.6217 10.0208 81.2363 10.375C81.8561 10.7292 82.3353 11.2422 82.6738 11.9141C83.0176 12.5859 83.1868 13.401 83.1816 14.3594V22H80.3535V14.7969C80.3535 13.9948 80.1452 13.3672 79.7285 12.9141C79.3171 12.4609 78.7467 12.2344 78.0176 12.2344C77.5228 12.2344 77.0827 12.3437 76.6973 12.5625C76.3171 12.776 76.0176 13.0859 75.7988 13.4922C75.5853 13.8984 75.4785 14.3906 75.4785 14.9687ZM88.6348 18.2344L88.627 14.8203H89.0801L93.3926 10H96.6973L91.3926 15.9062H90.8066L88.6348 18.2344ZM86.0566 22V6H88.8848V22H86.0566ZM93.5879 22L89.6816 16.5391L91.5879 14.5469L96.9707 22H93.5879ZM63.2734 37.3984C63.2005 36.7161 62.8932 36.1849 62.3516 35.8047C61.8151 35.4245 61.1172 35.2344 60.2578 35.2344C59.6536 35.2344 59.1354 35.3255 58.7031 35.5078C58.2708 35.6901 57.9401 35.9375 57.7109 36.25C57.4818 36.5625 57.3646 36.9193 57.3594 37.3203C57.3594 37.6536 57.4349 37.9427 57.5859 38.1875C57.7422 38.4323 57.9531 38.6406 58.2188 38.8125C58.4844 38.9792 58.7786 39.1198 59.1016 39.2344C59.4245 39.349 59.75 39.4453 60.0781 39.5234L61.5781 39.8984C62.1823 40.0391 62.763 40.2292 63.3203 40.4687C63.8828 40.7083 64.3854 41.0104 64.8281 41.375C65.276 41.7396 65.6302 42.1797 65.8906 42.6953C66.151 43.2109 66.2813 43.8151 66.2813 44.5078C66.2813 45.4453 66.0417 46.2708 65.5625 46.9844C65.0833 47.6927 64.3906 48.2474 63.4844 48.6484C62.5833 49.0443 61.4922 49.2422 60.2109 49.2422C58.9661 49.2422 57.8854 49.0495 56.9688 48.6641C56.0573 48.2786 55.3438 47.7161 54.8281 46.9766C54.3177 46.237 54.0417 45.3359 54 44.2734H56.8516C56.8932 44.8307 57.0651 45.2943 57.3672 45.6641C57.6693 46.0339 58.0625 46.3099 58.5469 46.4922C59.0365 46.6745 59.5833 46.7656 60.1875 46.7656C60.8177 46.7656 61.3698 46.6719 61.8438 46.4844C62.3229 46.2917 62.6979 46.026 62.9688 45.6875C63.2396 45.3437 63.3776 44.9427 63.3828 44.4844C63.3776 44.0677 63.2552 43.724 63.0156 43.4531C62.776 43.1771 62.4401 42.9479 62.0078 42.7656C61.5807 42.5781 61.0807 42.4115 60.5078 42.2656L58.6875 41.7969C57.3698 41.4583 56.3281 40.9453 55.5625 40.2578C54.8021 39.5651 54.4219 38.6458 54.4219 37.5C54.4219 36.5573 54.6771 35.7318 55.1875 35.0234C55.7031 34.3151 56.4036 33.7656 57.2891 33.375C58.1745 32.9792 59.1771 32.7812 60.2969 32.7812C61.4323 32.7812 62.4271 32.9792 63.2813 33.375C64.1406 33.7656 64.8151 34.3099 65.3047 35.0078C65.7943 35.7005 66.0469 36.4974 66.0625 37.3984H63.2734ZM70.498 53.5C70.1126 53.5 69.7559 53.4688 69.4277 53.4063C69.1048 53.349 68.847 53.2813 68.6543 53.2031L69.3105 51C69.722 51.1198 70.0892 51.1771 70.4121 51.1719C70.735 51.1667 71.0189 51.0651 71.2637 50.8672C71.5137 50.6745 71.7246 50.3516 71.8965 49.8984L72.1387 49.25L67.7871 37H70.7871L73.5527 46.0625H73.6777L76.4512 37H79.459L74.6543 50.4531C74.4303 51.0885 74.1335 51.6328 73.7637 52.0859C73.3939 52.5443 72.9408 52.8932 72.4043 53.1328C71.873 53.3776 71.2376 53.5 70.498 53.5ZM84.2441 41.9687V49H81.416V37H84.1191V39.0391H84.2598C84.5358 38.3672 84.9759 37.8333 85.5801 37.4375C86.1895 37.0417 86.9421 36.8438 87.8379 36.8438C88.666 36.8438 89.3874 37.0208 90.002 37.375C90.6217 37.7292 91.1009 38.2422 91.4395 38.9141C91.7832 39.5859 91.9525 40.401 91.9473 41.3594V49H89.1191V41.7969C89.1191 40.9948 88.9108 40.3672 88.4941 39.9141C88.0827 39.4609 87.5124 39.2344 86.7832 39.2344C86.2884 39.2344 85.8483 39.3437 85.4629 39.5625C85.0827 39.776 84.7832 40.0859 84.5645 40.4922C84.3509 40.8984 84.2441 41.3906 84.2441 41.9687ZM100.057 49.2344C98.8587 49.2344 97.8301 48.9714 96.9707 48.4453C96.1165 47.9193 95.4577 47.1927 94.9941 46.2656C94.5358 45.3333 94.3066 44.2604 94.3066 43.0469C94.3066 41.8281 94.541 40.7526 95.0098 39.8203C95.4785 38.8828 96.14 38.1536 96.9941 37.6328C97.8535 37.1068 98.8691 36.8438 100.041 36.8438C101.015 36.8438 101.877 37.0234 102.627 37.3828C103.382 37.737 103.984 38.2396 104.432 38.8906C104.88 39.5365 105.135 40.2917 105.197 41.1562H102.494C102.385 40.5781 102.124 40.0964 101.713 39.7109C101.307 39.3203 100.762 39.125 100.08 39.125C99.502 39.125 98.9941 39.2812 98.5566 39.5937C98.1191 39.901 97.778 40.3437 97.5332 40.9219C97.2936 41.5 97.1738 42.1927 97.1738 43C97.1738 43.8177 97.2936 44.5208 97.5332 45.1094C97.7728 45.6927 98.1087 46.1432 98.541 46.4609C98.9785 46.7734 99.4915 46.9297 100.08 46.9297C100.497 46.9297 100.869 46.8516 101.197 46.6953C101.531 46.5339 101.809 46.3021 102.033 46C102.257 45.6979 102.411 45.3307 102.494 44.8984H105.197C105.13 45.7474 104.88 46.5 104.447 47.1562C104.015 47.8073 103.426 48.3177 102.682 48.6875C101.937 49.0521 101.062 49.2344 100.057 49.2344Z" fill="#F8F8FF"/>
<path d="M23.125 3C28.2336 3 32.375 7.15154 32.375 12.2727L32.375 40.0909H23.125L23.125 3Z" fill="#F8F8FF"/>
<path d="M37 40.0909L23.125 54V40.0909H37Z" fill="#F8F8FF"/>
<path d="M13.875 54C8.76636 54 4.625 49.8485 4.625 44.7273L4.625 16.9091L13.875 16.9091L13.875 54Z" fill="#F8F8FF"/>
<path d="M0 16.9091L13.875 3L13.875 16.9091L0 16.9091Z" fill="#F8F8FF"/>
</svg>
